HIERARCHY
ROOT SpineBase
{
  OFFSET 0.000000 0.000000 0.000000
  CHANNELS 6 Xposition Yposition Zposition Zrotation Xrotation Yrotation
  JOINT SpineMid
  {
    OFFSET -0.000000 29.972293 0.000000
    CHANNELS 3 Zrotation Xrotation Yrotation
    JOINT SpineShoulder
    {
      OFFSET -0.052874 22.250896 -0.776922
      CHANNELS 3 Zrotation Xrotation Yrotation
      JOINT Neck
      {
        OFFSET -0.031764 7.348011 -0.573381
        CHANNELS 3 Zrotation Xrotation Yrotation
        JOINT Head
        {
          OFFSET -3.411227 12.644524 -1.843960
          CHANNELS 3 Zrotation Xrotation Yrotation
          End Site
          {
            OFFSET 0 0 0
          }
        }
      }
      JOINT ShoulderLeft
      {
        OFFSET -13.901269 -0.280399 10.872804
        CHANNELS 3 Zrotation Xrotation Yrotation
        JOINT ElbowLeft
        {
          OFFSET -5.816620 -19.622787 -18.354633
          CHANNELS 3 Zrotation Xrotation Yrotation
          JOINT WristLeft
          {
            OFFSET 1.277986 -26.719731 -1.444538
            CHANNELS 3 Zrotation Xrotation Yrotation
            JOINT HandLeft
            {
              OFFSET 0.962562 -3.766353 -0.966514
              CHANNELS 3 Zrotation Xrotation Yrotation
              JOINT HandTipLeft
              {
                OFFSET 2.546054 -1.939755 -0.837161
                CHANNELS 3 Zrotation Xrotation Yrotation
                End Site
                {
                  OFFSET 0 0 0
                }
              }
              JOINT ThumbLeft
              {
                OFFSET 4.336580 1.615112 -4.035981
                CHANNELS 3 Zrotation Xrotation Yrotation
                End Site
                {
                  OFFSET 0 0 0
                }
              }
            }
          }
        }
      }
      JOINT ShoulderRight
      {
        OFFSET 13.009880 -2.503959 -8.126466
        CHANNELS 3 Zrotation Xrotation Yrotation
        JOINT ElbowRight
        {
          OFFSET 12.789662 -17.201528 2.271080
          CHANNELS 3 Zrotation Xrotation Yrotation
          JOINT WristRight
          {
            OFFSET -19.320914 -3.249698 -14.511385
            CHANNELS 3 Zrotation Xrotation Yrotation
            JOINT HandRight
            {
              OFFSET -6.668939 -1.148498 -1.915114
              CHANNELS 3 Zrotation Xrotation Yrotation
              JOINT HandTipRight
              {
                OFFSET -4.929693 1.422608 -1.129048
                CHANNELS 3 Zrotation Xrotation Yrotation
                End Site
                {
                  OFFSET 0 0 0
                }
              }
              JOINT ThumbRight
              {
                OFFSET -0.447007 -5.620235 0.011556
                CHANNELS 3 Zrotation Xrotation Yrotation
                End Site
                {
                  OFFSET 0 0 0
                }
              }
            }
          }
        }
      }
    }
  }
  JOINT HipLeft
  {
    OFFSET -6.660273 0.096404 -0.307686
    CHANNELS 3 Zrotation Xrotation Yrotation
    JOINT KneeLeft
    {
      OFFSET 3.369903 -25.089735 14.530023
      CHANNELS 3 Zrotation Xrotation Yrotation
      JOINT AnkleLeft
      {
        OFFSET 11.783065 -32.177563 15.144474
        CHANNELS 3 Zrotation Xrotation Yrotation
        JOINT FootLeft
        {
          OFFSET -4.559470 -5.578941 -7.365256
          CHANNELS 3 Zrotation Xrotation Yrotation
          End Site
          {
            OFFSET 0 0 0
          }
        }
      }
    }
  }
  JOINT HipRight
  {
    OFFSET 6.642852 1.011956 -6.427576
    CHANNELS 3 Zrotation Xrotation Yrotation
    JOINT KneeRight
    {
      OFFSET 4.141609 -26.910318 2.670530
      CHANNELS 3 Zrotation Xrotation Yrotation
      JOINT AnkleRight
      {
        OFFSET 7.440328 -32.235108 9.601447
        CHANNELS 3 Zrotation Xrotation Yrotation
        JOINT FootRight
        {
          OFFSET -5.323430 -4.785300 -9.381123
          CHANNELS 3 Zrotation Xrotation Yrotation
          End Site
          {
            OFFSET 0 0 0
          }
        }
      }
    }
  }
}
MOTION
Frames: 8
Frame Time: 0.033333
1.050533 65.169058 343.979482 0.000000 0.000000 24.704042 -0.000000 -0.000000 -24.704042 -0.000000 0.000000 0.000000 -0.000000 0.000000 0.000000 0.000000 0.000000 0.000000 -0.000000 0.000000 0.000000 -0.000000 0.000000 0.000000 -0.000000 0.000000 0.000000 -0.000000 0.000000 0.000000 0.000000 0.000000 0.000000 0.000000 0.000000 0.000000 -0.000000 0.000000 0.000000 -0.000000 0.000000 0.000000 -0.000000 0.000000 0.000000 -0.000000 0.000000 0.000000 0.000000 0.000000 0.000000 0.000000 0.000000 0.000000 -0.000000 -0.000000 -24.704042 -0.000000 0.000000 0.000000 -0.000000 0.000000 0.000000 0.000000 0.000000 0.000000 -0.000000 -0.000000 -24.704042 -0.000000 0.000000 0.000000 -0.000000 0.000000 0.000000 0.000000 0.000000 0.000000
1.000465 65.103365 343.554440 -0.215712 -0.263192 24.147783 0.304506 0.151913 -24.148682 -0.000000 0.000000 0.000000 -1.090644 0.347287 -0.062245 0.000000 0.000000 0.000000 0.091436 -1.043500 0.226614 0.235223 3.135603 -0.153696 -6.347871 -9.160054 -0.976963 -14.026187 -0.126715 0.441051 0.000000 0.000000 0.000000 0.000000 0.000000 0.000000 -0.897380 0.177639 0.015079 -0.822860 0.929051 0.972780 0.311964 -0.919767 0.141952 -3.554149 0.869465 -1.685890 0.000000 0.000000 0.000000 0.000000 0.000000 0.000000 0.304506 0.151913 -24.148682 -0.000000 0.000000 0.000000 -0.701861 2.415844 -1.000396 0.000000 0.000000 0.000000 0.999188 -0.469038 -24.102173 -0.887702 0.283098 -0.042393 -0.000000 0.000000 0.000000 0.000000 0.000000 0.000000
0.999864 65.039890 343.141855 -0.393811 -0.491905 23.651794 0.558079 0.292584 -23.654909 -0.000000 0.000000 0.000000 -2.005956 0.619304 -0.115276 0.000000 0.000000 0.000000 0.187080 -1.944961 0.411501 0.362984 5.649896 -0.291284 -13.760017 -18.477344 -3.386891 -22.240006 1.616781 2.915790 0.000000 0.000000 0.000000 0.000000 0.000000 0.000000 -1.703883 0.370965 0.057015 -1.437208 1.602727 1.841600 0.415255 -1.620021 0.157266 -6.195258 1.672152 -3.010858 0.000000 0.000000 0.000000 0.000000 0.000000 0.000000 1.121834 -0.262003 -23.265879 -0.048636 -0.658931 -0.402632 -1.935616 5.299345 -1.735114 0.000000 0.000000 0.000000 1.864595 -0.929674 -23.572061 -1.675380 -0.367962 -0.285506 0.309913 1.071306 -0.543593 0.000000 0.000000 0.000000
1.048731 64.978633 342.741725 -0.534125 -0.685941 23.216132 -0.101558 0.114014 -23.243049 -0.104654 0.042173 -0.037311 -1.971672 1.392233 -0.075241 0.000000 0.000000 0.000000 1.064256 -2.123149 0.610406 0.368020 7.511518 -0.398583 -21.106132 -26.210430 -6.838123 -25.242848 4.166573 6.232613 0.000000 0.000000 0.000000 0.000000 0.000000 0.000000 -1.644491 1.156461 0.209373 -1.876474 2.058249 2.612783 0.361658 -2.119408 0.023903 -8.015412 2.319704 -4.005454 0.000000 0.000000 0.000000 0.000000 0.000000 0.000000 1.484932 -0.403109 -22.714223 -0.071110 -0.938581 -0.579789 -2.586225 7.298824 -2.244144 0.000000 0.000000 0.000000 2.591658 -1.387512 -23.113961 -2.441977 -0.463533 -0.410256 0.484787 1.554334 -0.713572 0.000000 0.000000 0.000000
1.147066 64.919594 342.354051 -0.636529 -0.845149 22.840796 -0.121949 0.140552 -22.873514 -0.125363 0.052540 -0.044393 -2.388031 1.643480 -0.094500 0.000000 0.000000 0.000000 1.315956 -2.605743 0.718815 0.238528 8.699752 -0.465027 -26.314783 -30.877523 -9.828644 -25.984999 6.101625 8.702182 0.000000 0.000000 0.000000 0.000000 0.000000 0.000000 -2.119851 1.510409 0.328661 -2.166927 2.323390 3.294498 0.191690 -2.431664 -0.276387 -9.121585 2.760565 -4.697786 0.000000 0.000000 0.000000 0.000000 0.000000 0.000000 1.723048 -0.561757 -22.268223 -0.106719 -1.180060 -0.748626 -3.061288 8.931627 -2.559717 0.000000 0.000000 0.000000 3.176291 -1.847347 -22.728087 -3.157378 -0.495634 -0.521413 0.673356 1.998067 -0.816789 0.000000 0.000000 0.000000
1.294869 64.862773 341.978833 -0.700946 -0.969428 22.525773 -0.135220 0.161657 -22.562397 -0.138928 0.061005 -0.048910 -2.685416 1.788711 -0.117665 0.000000 0.000000 0.000000 1.513411 -2.975225 0.779637 -0.032540 9.202386 -0.485209 -27.602884 -32.079805 -10.740890 -26.284308 6.597088 9.452900 0.000000 0.000000 0.000000 0.000000 0.000000 0.000000 -2.559686 1.848648 0.470120 -2.328433 2.418086 3.895795 -0.063114 -2.566120 -0.760019 -9.612324 2.968980 -5.105972 0.000000 0.000000 0.000000 0.000000 0.000000 0.000000 1.838918 -0.744447 -21.925160 -0.163139 -1.378679 -0.912799 -3.375481 10.233117 -2.704205 0.000000 0.000000 0.000000 3.614813 -2.313120 -22.414759 -3.818415 -0.461492 -0.617694 0.875153 2.399756 -0.854055 0.000000 0.000000 0.000000
1.529503 64.830903 341.595886 -0.727799 -1.009610 22.717376 -0.119570 0.175056 -22.755046 -0.132468 0.067203 -0.049155 -2.807754 1.636043 -0.184240 0.000000 0.000000 0.000000 1.644040 -3.286567 0.772142 -0.664293 8.840030 -0.415521 -24.197311 -29.964623 -9.161759 -28.456428 4.868835 9.584861 0.000000 0.000000 0.000000 0.000000 0.000000 0.000000 -3.115514 2.223148 0.698448 -2.664942 2.463610 4.675613 -0.320187 -2.699139 -1.587457 -11.938922 3.631283 -6.243325 0.000000 0.000000 0.000000 0.000000 0.000000 0.000000 1.602447 -0.971041 -22.252918 0.090479 -1.640710 -0.944534 -4.193260 12.690955 -2.912328 0.000000 0.000000 0.000000 3.762834 -3.070071 -22.650751 -4.428785 -0.188840 -0.670819 1.101811 2.823630 -0.805836 0.000000 0.000000 0.000000
1.815511 64.796381 341.245185 -0.686055 -1.002517 22.744300 -0.092800 0.195999 -22.779483 -0.117793 0.083816 -0.045413 -2.766027 1.356966 -0.247235 0.000000 0.000000 0.000000 1.752108 -3.210379 0.555029 -1.252686 6.609174 -0.240770 -16.939332 -20.454233 -4.160272 -23.662689 4.024072 9.048187 0.000000 0.000000 0.000000 0.000000 0.000000 0.000000 -3.587256 2.593500 0.990668 -2.048249 1.780867 4.839908 -0.502610 -1.976942 -3.886052 -8.431531 1.764244 -4.884238 0.000000 0.000000 0.000000 0.000000 0.000000 0.000000 1.302727 -1.265137 -22.399864 0.076049 -1.611809 -1.016332 -4.825978 13.510186 -2.098671 0.000000 0.000000 0.000000 3.750800 -3.791723 -22.730107 -4.927361 0.186337 -0.679547 1.200581 3.081615 -0.502708 0.000000 0.000000 0.000000
